<svg width="158" height="42" viewBox="0 0 158 42" fill="none" xmlns="http://www.w3.org/2000/svg">
<path d="M22.0246 33.1115C22.0605 29.4401 21.1297 26.4545 19.9457 26.4429C18.7616 26.4314 17.7727 29.3983 17.7368 33.0696C17.7009 36.7411 18.6317 39.7267 19.8157 39.7383C20.9998 39.7499 21.9888 36.783 22.0246 33.1115Z" fill="#FF6129"/>
<path d="M15.1576 32.2777C17.1728 29.2086 18.0041 26.1937 17.0144 25.5438C16.0245 24.8939 13.5884 26.855 11.5732 29.9241C9.55797 32.9933 8.72669 36.0081 9.71645 36.6581C10.7063 37.308 13.1423 35.3469 15.1576 32.2777Z" fill="#FF6129"/>
<path d="M9.82334 27.8746C13.1781 26.3824 15.5074 24.2957 15.0261 23.2138C14.5449 22.1319 11.4353 22.4645 8.08062 23.9568C4.72593 25.4489 2.39655 27.5356 2.87779 28.6176C3.35902 29.6995 6.46865 29.3668 9.82334 27.8746Z" fill="#FF6129"/>
<path d="M14.6236 20.1797C14.8037 19.0094 12.008 17.6079 8.37917 17.0493C4.75028 16.4908 1.66249 16.9868 1.48236 18.1571C1.30223 19.3274 4.09797 20.7289 7.72684 21.2874C11.3557 21.846 14.4435 21.35 14.6236 20.1797Z" fill="#FF6129"/>
<path d="M15.9265 17.3914C16.7106 16.5042 15.1161 13.8139 12.3649 11.3825C9.61381 8.95106 6.74791 7.69925 5.96376 8.5865C5.17962 9.47376 6.77418 12.1641 9.52533 14.5955C12.2765 17.027 15.1424 18.2787 15.9265 17.3914Z" fill="#FF6129"/>
<path d="M18.5211 15.7621C19.6605 15.4397 19.7737 12.3143 18.774 8.78146C17.7743 5.24859 16.0402 2.64599 14.9009 2.9684C13.7615 3.29081 13.6483 6.41612 14.648 9.94903C15.6477 13.4818 17.3818 16.0845 18.5211 15.7621Z" fill="#FF6129"/>
<path d="M25.5668 10.0592C26.636 6.54673 26.5845 3.41979 25.4517 3.07498C24.3189 2.73017 22.5338 5.29805 21.4646 8.81053C20.3955 12.323 20.447 15.4499 21.5798 15.7947C22.7126 16.1395 24.4977 13.5717 25.5668 10.0592Z" fill="#FF6129"/>
<path d="M30.6011 14.8051C33.3993 12.4279 35.0461 9.76923 34.2794 8.86686C33.5128 7.96446 30.6229 9.16003 27.8249 11.5372C25.0267 13.9144 23.3799 16.573 24.1465 17.4754C24.9132 18.3778 27.803 17.1823 30.6011 14.8051Z" fill="#FF6129"/>
<path d="M32.2657 21.5215C35.9049 21.0347 38.7277 19.6886 38.5707 18.5149C38.4137 17.3413 35.3363 16.7846 31.6971 17.2714C28.058 17.7583 25.2351 19.1043 25.3921 20.278C25.5492 21.4516 28.6265 22.0084 32.2657 21.5215Z" fill="#FF6129"/>
<path d="M36.9603 28.953C37.4628 27.8809 35.175 25.7486 31.8504 24.1905C28.5258 22.6325 25.4234 22.2386 24.9209 23.3108C24.4184 24.383 26.7062 26.5153 30.0308 28.0733C33.3554 29.6313 36.4579 30.0253 36.9603 28.953Z" fill="#FF6129"/>
<path d="M29.9671 36.8638C30.9695 36.2335 30.1978 33.2028 28.2435 30.0946C26.2892 26.9863 23.8922 24.9776 22.8898 25.6078C21.8874 26.2381 22.6591 29.2688 24.6134 32.377C26.5678 35.4853 28.9647 37.4941 29.9671 36.8638Z" fill="#FF6129"/>
<text x="40" y="30" font-family="Arial" font-size="20" font-weight="bold" fill="black">e-Wedding</text>
</svg>
